<svg xmlns="http://www.w3.org/2000/svg" width="46.028" height="47.593" viewBox="0 0 46.028 47.593"><defs><style>.a{fill:#efefef;}</style></defs><g transform="translate(0)"><path class="a" d="M22.733,0c10.249,0,14.38,9.82,14.38,20.069,0,4.12-1.939,7-4.248,10.135-3.342,4.53-8.18,9.124-14.309,9.124C8.308,39.328,0,30.317,0,20.069c0-7.42,2.172-11,8.543-14C13.552,4.006,19.9,0,22.733,0Z" transform="matrix(-0.966, -0.259, 0.259, -0.966, 35.849, 47.593)"/><path d="M18.517,6.463A2.242,2.242,0,0,0,16.94,4.875,52.973,52.973,0,0,0,9.97,4.5,52.973,52.973,0,0,0,3,4.875,2.242,2.242,0,0,0,1.423,6.463a23.515,23.515,0,0,0-.373,4.322,23.515,23.515,0,0,0,.373,4.322A2.208,2.208,0,0,0,3,16.668a52.973,52.973,0,0,0,6.97.375,52.973,52.973,0,0,0,6.97-.375,2.208,2.208,0,0,0,1.577-1.562,23.515,23.515,0,0,0,.373-4.322,23.515,23.515,0,0,0-.373-4.322ZM8.145,13.437V8.132l4.663,2.653L8.145,13.437Z" transform="translate(14.275 12.514)"/></g></svg>