<svg xmlns="http://www.w3.org/2000/svg" width="19.689" height="13.657" viewBox="0 0 19.689 13.657"><defs><style>.a{fill:#00a335;stroke:#00a335;}</style></defs><g transform="translate(0.5 0.504)"><path class="a" d="M18.338,5.454,9.577,1.878a.617.617,0,0,0-.464,0L.351,5.454a.538.538,0,0,0,0,1.01L3.5,7.75v3.435c0,1.851,2.566,3.3,5.841,3.3s5.841-1.45,5.841-3.3V7.75l.584-.238v5.874a.585.585,0,0,0,1.168,0V7.035l1.4-.572A.538.538,0,0,0,18.338,5.454ZM9.345,2.982l7.292,2.976-.578.236L9.417,5.413a.578.578,0,0,0-.652.478.558.558,0,0,0,.507.614l4.678.551L9.345,8.935,2.052,5.958Zm4.673,8.2c0,.518-.452,1.052-1.239,1.464a8.364,8.364,0,0,1-6.867,0c-.788-.412-1.239-.946-1.239-1.464V8.227l4.44,1.812a.617.617,0,0,0,.464,0l4.44-1.812Z" transform="translate(0 -1.832)"/></g></svg>