<svg xmlns="http://www.w3.org/2000/svg" width="39.327" height="37.114" viewBox="0 0 39.327 37.114"><defs><style>.a{fill:#efefef;}</style></defs><path class="a" d="M22.733,0c10.249,0,14.38,9.82,14.38,20.069,0,4.12-1.939,7-4.248,10.135-3.342,4.53-8.18,9.124-14.309,9.124C8.308,39.327,0,30.317,0,20.069c0-7.42,2.172-11,8.543-14C13.552,4.006,19.9,0,22.733,0Z" transform="translate(39.327 0) rotate(90)"/><path d="M9.559,8.934,10,6.06H7.242V4.194A1.437,1.437,0,0,1,8.862,2.641h1.254V.194A15.291,15.291,0,0,0,7.89,0,3.509,3.509,0,0,0,4.134,3.869V6.06H1.609V8.934H4.134v6.949H7.242V8.934Z" transform="translate(13.801 10.616)"/></svg>