<svg xmlns="http://www.w3.org/2000/svg" width="53.851" height="55.443" viewBox="0 0 53.851 55.443"><defs><style>.a{fill:#00a33e;}.b,.c{fill:none;}.c{stroke:#000;stroke-width:3px;}.d,.e{stroke:none;}.e{fill:#000;}</style></defs><path class="a" d="M24.646,0A24.646,24.646,0,0,1,49.292,24.646c0,10.059,1.544,14.277-7.268,18.184-2.877,1.277-13.825,6.462-17.378,6.462-3.825,0-12.34-2.316-15.721-3.944C.81,41.442,0,34.432,0,24.646,0,19.718,2.574,10.991,5.156,7,9.454.353,15.962,0,24.646,0Z" transform="translate(4.455 6.151)"/><g class="b" transform="translate(0 0.494)"><path class="d" d="M25.878-.17A25.878,25.878,0,0,1,51.757,25.708c0,7.06-3.607,12.219-8.711,16.6-4.937,4.239-11.458,7.614-18.69,7.614C10.064,49.922,0,40,0,25.708,0,17.6.789,10.673,7.258,4.2S19.69-.17,25.878-.17Z"/><path class="e" d="M 18.63921737670898 2.506034851074219 C 15.37359619140625 2.506034851074219 12.54921722412109 3.155475616455078 9.379676818847656 6.324985504150391 C 6.725254058837891 8.979385375976562 5.044334411621094 11.78676605224609 4.089736938476562 15.15997314453125 C 3.132015228271484 18.5441951751709 2.999996185302734 22.22957420349121 2.999996185302734 25.70804405212402 C 2.999996185302734 28.8363151550293 3.533016204833984 31.76547431945801 4.584247589111328 34.41417694091797 C 5.591464996337891 36.95197296142578 7.053936004638672 39.18262481689453 8.931045532226562 41.04416656494141 C 10.80740737915039 42.90496444702148 13.05537414550781 44.35485458374023 15.61249542236328 45.35355377197266 C 18.27646636962891 46.39399337768555 21.21830558776855 46.92153549194336 24.35628509521484 46.92153549194336 C 27.33757591247559 46.92153549194336 30.36785507202148 46.25958633422852 33.36294555664062 44.95406341552734 C 36.0523681640625 43.78178405761719 38.65263366699219 42.12562561035156 41.09197616577148 40.03120422363281 C 43.62437438964844 37.85778427124023 45.46023559570312 35.73282623291016 46.70447540283203 33.53487396240234 C 48.08527755737305 31.09568405151367 48.75650405883789 28.5355052947998 48.75650405883789 25.70804405212402 C 48.75650405883789 22.61821556091309 48.15202713012695 19.62240409851074 46.95985412597656 16.80382537841797 C 45.80771636962891 14.07988357543945 44.15769577026367 11.63290405273438 42.05563354492188 9.530853271484375 C 39.95356750488281 7.428813934326172 37.50656509399414 5.778804779052734 34.78259658813477 4.626674652099609 C 31.96397590637207 3.434513092041016 28.96812629699707 2.830036163330078 25.87825584411621 2.830036163330078 C 24.55768585205078 2.830036163330078 23.2769660949707 2.743915557861328 22.03842544555664 2.660633087158203 C 20.85602569580078 2.581134796142578 19.73920440673828 2.506034851074219 18.63921737670898 2.506034851074219 M 18.63921356201172 -0.4939613342285156 C 21.04701614379883 -0.4939613342285156 23.44500541687012 -0.1699638366699219 25.87825584411621 -0.1699638366699219 C 40.17042541503906 -0.1699638366699219 51.75650405883789 11.416015625 51.75650405883789 25.70804405212402 C 51.75650405883789 32.76830291748047 48.14988708496094 37.92717361450195 43.04579544067383 42.30773544311523 C 38.10899353027344 46.54647445678711 31.58811569213867 49.92153549194336 24.35628509521484 49.92153549194336 C 10.06411743164062 49.92153549194336 -3.814697265625e-06 40.00007629394531 -3.814697265625e-06 25.70804405212402 C -3.814697265625e-06 17.60446548461914 0.7888069152832031 10.67315292358398 7.258365631103516 4.203655242919922 C 11.18417358398438 0.2778892517089844 14.92323303222656 -0.4939613342285156 18.63921356201172 -0.4939613342285156 Z"/></g><path class="c" d="M1918.113,2716.852c-1,1.708.164,3.8-.621,8.984a25.268,25.268,0,0,0,1.084,10.557s13.716-5.856,14.545-8.866c.06-1.323-10.554-8.6-10.554-8.6S1919.111,2715.145,1918.113,2716.852Z" transform="translate(-1898.081 -2701.244)"/></svg>