<svg xmlns="http://www.w3.org/2000/svg" width="37.114" height="39.328" viewBox="0 0 37.114 39.328"><defs><style>.a{fill:#efefef;}</style></defs><path class="a" d="M22.733-5.426c10.249,0,14.38,9.82,14.38,20.069,0,4.12-1.939,7-4.248,10.135-3.342,4.53-8.18,9.124-14.309,9.124C8.308,33.9,0,24.892,0,14.643c0-7.42,2.172-11,8.543-14C13.552-1.42,19.9-5.426,22.733-5.426Z" transform="translate(0 5.426)"/><path d="M8.792,6.522A4.509,4.509,0,1,0,13.3,11.031,4.5,4.5,0,0,0,8.792,6.522Zm0,7.44a2.931,2.931,0,1,1,2.931-2.931,2.937,2.937,0,0,1-2.931,2.931Zm5.745-7.625a1.052,1.052,0,1,1-1.052-1.052A1.049,1.049,0,0,1,14.537,6.338Zm2.986,1.067A5.2,5.2,0,0,0,16.1,3.72,5.239,5.239,0,0,0,12.418,2.3c-1.452-.082-5.8-.082-7.256,0A5.231,5.231,0,0,0,1.477,3.716,5.222,5.222,0,0,0,.057,7.4c-.082,1.452-.082,5.8,0,7.256a5.2,5.2,0,0,0,1.421,3.685,5.245,5.245,0,0,0,3.685,1.421c1.452.082,5.8.082,7.256,0A5.2,5.2,0,0,0,16.1,18.342a5.239,5.239,0,0,0,1.421-3.685c.082-1.452.082-5.8,0-7.252Zm-1.876,8.81a2.968,2.968,0,0,1-1.672,1.672c-1.158.459-3.9.353-5.184.353s-4.03.1-5.184-.353a2.968,2.968,0,0,1-1.672-1.672c-.459-1.158-.353-3.9-.353-5.184s-.1-4.03.353-5.184A2.968,2.968,0,0,1,3.608,4.175c1.158-.459,3.9-.353,5.184-.353s4.03-.1,5.184.353a2.968,2.968,0,0,1,1.672,1.672C16.107,7,16,9.752,16,11.031S16.107,15.061,15.648,16.215Z" transform="translate(9.767 8.633)"/></svg>