<svg xmlns="http://www.w3.org/2000/svg" width="45.923" height="57.576" viewBox="0 0 45.923 57.576"><defs><style>.a{fill:#006cff;}.b{fill:none;stroke:#000;stroke-width:3px;}</style></defs><g transform="translate(1.426 1.5)"><path class="a" d="M5367.317,4141.906c4.162.5,6.378,2.766,9.767-4.344a117.732,117.732,0,0,0,6.036-17.233s5.693-2.042,6.686,2.08.731,13.759-2.771,16.657a129.6,129.6,0,0,1,18.1,0s5.691,2.916,0,8.149c3.453,2.464,5.027,7.3,0,10.675,3.924,3.448,1.2,5-2.48,6.321,2.934,3.56-3.925,7.169-12.849,6.536s-8.023-5.184-15.386-6.536S5365.7,4161.619,5367.317,4141.906Z" transform="translate(-5363.844 -4114.744)"/><path class="b" d="M5367.317,4141.906c4.162.5,6.378,2.766,9.767-4.344a117.732,117.732,0,0,0,6.036-17.233s5.693-2.042,6.686,2.08.731,13.759-2.771,16.657a129.6,129.6,0,0,1,18.1,0s5.691,2.916,0,8.149c3.453,2.464,5.027,7.3,0,10.675,3.924,3.448,1.2,5-2.48,6.321,2.934,3.56-3.925,7.169-12.849,6.536s-8.023-5.184-15.386-6.536S5365.7,4161.619,5367.317,4141.906Z" transform="translate(-5366.707 -4119.823)"/></g></svg>