<svg xmlns="http://www.w3.org/2000/svg" width="42.885" height="52.012" viewBox="0 0 42.885 52.012"><defs><style>.a{fill:#ff3a3c;}.b{fill:none;stroke:#000;stroke-width:3px;}</style></defs><g transform="translate(1.5 1.534)"><path class="a" d="M8956.3,3017.607s-6.479-11.278-7.168,0,0,45.01,0,45.01,3.7-.042,7.168-5.365,6.247-9.364,6.247-9.364h18.091s7.6-1.179,0-6.88S8956.3,3017.607,8956.3,3017.607Z" transform="translate(-8942.632 -3012.14)"/><path class="b" d="M8954.922,3017.221s-5.979-10.409-6.614,0c-.246,4.018-2.318,8.372-2.295,15.763.038,11.289,2.295,25.777,2.295,25.777s3.41-.039,6.614-4.951,5.766-8.642,5.766-8.642h16.7s7.011-1.088,0-6.349S8954.922,3017.221,8954.922,3017.221Z" transform="translate(-8946.013 -3012.595)"/></g></svg>