<svg xmlns="http://www.w3.org/2000/svg" width="47.593" height="46.028" viewBox="0 0 47.593 46.028"><defs><style>.a{fill:#efefef;}</style></defs><g transform="translate(0)"><path class="a" d="M22.733,0c10.249,0,14.38,9.82,14.38,20.069,0,4.12-1.939,7-4.248,10.135-3.342,4.53-8.18,9.124-14.309,9.124C8.308,39.327,0,30.317,0,20.069c0-7.42,2.172-11,8.543-14C13.552,4.006,19.9,0,22.733,0Z" transform="matrix(0.259, -0.966, 0.966, 0.259, 0, 35.849)"/><path d="M6.579.457C3.27.457,0,2.663,0,6.233c0,2.27,1.277,3.56,2.051,3.56.319,0,.5-.89.5-1.142,0-.3-.764-.938-.764-2.186A4.358,4.358,0,0,1,6.317,2.034c2.2,0,3.821,1.248,3.821,3.541,0,1.712-.687,4.924-2.912,4.924a1.432,1.432,0,0,1-1.49-1.412c0-1.219.851-2.4.851-3.657,0-2.135-3.028-1.748-3.028.832A3.789,3.789,0,0,0,3.87,7.9c-.445,1.916-1.354,4.77-1.354,6.743,0,.609.087,1.209.145,1.819.11.123.055.11.223.048,1.625-2.225,1.567-2.66,2.3-5.573A2.616,2.616,0,0,0,7.42,12.1c3.425,0,4.963-3.338,4.963-6.346C12.383,2.547,9.616.457,6.579.457Z" transform="translate(17.605 14.509)"/></g></svg>