<svg xmlns="http://www.w3.org/2000/svg" width="121.494" height="40.261" viewBox="0 0 121.494 40.261"><defs><style>.a{opacity:0.764;}.b{fill:#ffe401;}</style></defs><g transform="translate(-1245.31 -971.686)"><g class="a" transform="translate(1340.315 971.686)"><path class="b" d="M1500.081,964.9a49.264,49.264,0,0,0-5.486-.013c-1.331.194-9.521,16.437-8.319,17.2s4.523.01,4.523.01,3.43-6.088,3.872-6.8S1500.089,966.388,1500.081,964.9Z" transform="translate(-1486.156 -964.801)"/></g><g transform="translate(1337.523 974.011)"><path d="M1499.1,964.892a44.891,44.891,0,0,0-5.1-.012c-1.237.184-8.849,15.579-7.731,16.307s4.2.01,4.2.01,3.188-5.77,3.6-6.446S1499.106,966.306,1499.1,964.892Z" transform="translate(-1486.156 -964.801)"/></g><g transform="translate(1261.155 973.915)"><path d="M1295.3,974.407s-2.767-.216-3.384,1.075-6.024,12.421-5.389,14.841,1.866,1.264,2.792,1.233.818-.911.911-1.354c.168-.807.731-2.6,2.19-2.716a36.849,36.849,0,0,0,4.163-.4,1.722,1.722,0,0,1,2.034,1.6c.3,1.465,1.321,2.887,2.173,2.54a10.861,10.861,0,0,1,2.667-.42S1298.836,975.405,1295.3,974.407Zm-2.174,9.317s1.481-5.848,1.879-4.9c.892,2.132,1.427,2.271,1.868,4.535,0,0-3.438.391-3.745.366Z" transform="translate(-1286.48 -974.394)"/></g><g transform="translate(1294.587 975.144)"><path d="M1384.668,977.886l-3.793-.3s-4.857.135-6.406,2.8-2.032,10.154,2.121,12.438,10.6,1.552,12.282-4.093S1388.46,978.183,1384.668,977.886Zm.736,8.784c-.432,2.241-2,3.692-4.841,3.159s-2.518-4.534-2.286-6.166,3.194-2.167,3.194-2.167c3.667-.075,4.365,2.934,3.933,5.175Z" transform="translate(-1373.346 -977.589)"/></g><g transform="translate(1320.388 974.011)"><path d="M1451.24,983.739a5.306,5.306,0,0,0,1.776-5.577c-.839-3.777-4.251-3.582-8.474-3.387,0,0-3.592-.546-3.68.582l-.369,4.714c-.24,3.075.149,3.6-.057,4.925s.29,2.96.088,5.556c-.069.881,1.658.89,3.324.71.81-1.173-.486-6.461,1.052-6.341.521.04,1,.057,1.414.061a1.865,1.865,0,0,1,1.762,1.276c.557,1.688,1.479,4.447,1.668,4.745.276.433,2.657.311,3.186.146S1451.24,983.739,1451.24,983.739Zm-2.54-3.13c-.377.859-1.626.761-3.134.643-1.707-.134-.609-2.9-.609-2.9,4.329.03,4.12,1.394,3.743,2.253Z" transform="translate(-1440.384 -974.643)"/></g><g transform="translate(1353.814 994.67)"><path d="M1538.147,1037.209a5.306,5.306,0,0,0,1.535-5.649c-1-3.739-4.4-3.4-8.613-3.018,0,0-3.612-.392-3.651.739l-.166,4.724c-.108,3.082.3,3.594.154,4.926s.417,2.945.326,5.547c-.031.882,1.7.817,3.35.566.764-1.208-.758-6.437.78-6.383.521.018,1,.013,1.415,0a1.864,1.864,0,0,1,1.815,1.2c.628,1.663,1.668,4.379,1.871,4.669.293.422,2.667.2,3.189.01S1538.147,1037.209,1538.147,1037.209Zm-2.671-3.019c-.339.874-1.592.83-3.107.777-1.709-.06-.731-2.867-.731-2.867,4.329-.156,4.176,1.217,3.839,2.091Z" transform="translate(-1527.234 -1028.321)"/></g><g transform="translate(1313.04 980.445)"><path d="M1425.635,991.582a12.876,12.876,0,0,0-3.761-.092c-.9.335-.76,8.857.434,9.073a37.643,37.643,0,0,0,3.814.3s-.019-3.2.017-3.663S1426.245,992.4,1425.635,991.582Z" transform="translate(-1421.29 -991.362)"/></g><g transform="translate(1313.081 1001.692)"><path d="M1425.743,1046.788a12.871,12.871,0,0,0-3.761-.092c-.9.335-.76,8.857.434,9.073a37.61,37.61,0,0,0,3.814.3s-.019-3.2.017-3.663S1426.353,1047.606,1425.743,1046.788Z" transform="translate(-1421.398 -1046.568)"/></g><g transform="translate(1312.872 974.503)"><path d="M1425.124,976.05a34.123,34.123,0,0,0-3.76-.117c-.892.106-.566,3.317.632,3.424s3.818.2,3.818.2-.089-1.2-.064-1.378S1425.751,976.371,1425.124,976.05Z" transform="translate(-1420.855 -975.923)"/></g><g transform="translate(1312.94 994.536)"><path d="M1425.315,1028.132a25.509,25.509,0,0,0-3.761-.112c-.895.153-.606,4.451.592,4.58s3.817.217,3.817.217-.075-1.61-.047-1.846S1425.939,1028.555,1425.315,1028.132Z" transform="translate(-1421.031 -1027.973)"/></g><g transform="translate(1245.31 973.588)"><path d="M1258.2,979.273s3.375-2.359.356-4.211c-2.094-1.284-7.4-2.643-10.265-.016s-3.866,4.672-.518,6.617,9.019,2.757,5.812,5.01c-2.019,1.419-4.314-2.2-4.314-2.2s-4.081-.425-3.961,1.537,4.886,6.44,10.657,3.872c4.145-1.844,5.82-5.9.981-8.632s-6.632-2.049-4.726-3.379S1254.967,977.607,1258.2,979.273Z" transform="translate(-1245.31 -973.545)"/></g><g transform="translate(1277.236 994.724)"><path d="M1340.857,1033.961s3.271-2.5.175-4.221c-2.148-1.195-7.509-2.323-10.257.424s-3.66,4.834-.232,6.634,9.128,2.365,6.022,4.754c-1.955,1.5-4.4-2.012-4.4-2.012s-4.1-.25-3.891,1.705,5.158,6.224,10.813,3.41c4.062-2.021,5.563-6.143.608-8.665s-6.714-1.761-4.868-3.173S1337.553,1032.436,1340.857,1033.961Z" transform="translate(-1328.262 -1028.463)"/></g><g transform="translate(1294.921 994.823)"><path d="M1386.807,1034.218s3.271-2.5.175-4.222c-2.148-1.193-7.507-2.322-10.255.424s-3.661,4.836-.232,6.634,9.128,2.365,6.02,4.754c-1.955,1.5-4.4-2.012-4.4-2.012s-4.1-.25-3.892,1.7,5.159,6.225,10.813,3.41c4.062-2.021,5.563-6.142.609-8.664s-6.714-1.761-4.867-3.173S1383.5,1032.692,1386.807,1034.218Z" transform="translate(-1374.212 -1028.719)"/></g><g transform="translate(1279.017 974.523)"><path d="M1337.018,976.787c-.1-1.077-.656-.758-1.492-.794a17.278,17.278,0,0,0-2.519.132c-.653.318,1.435,14.884,5.535,15.2,2.327.178,1.867.312,2.968-.1,0,0,6.383-7.572,5.145-14.9a4.812,4.812,0,0,0-2.81,0c-.986.409-.71,1.57-1.008,2.76-.56,2.245-1.594,6.119-3,6.983-.79.484-1.473-2.661-2.245-6.984C1337.545,978.826,1337.018,976.787,1337.018,976.787Z" transform="translate(-1332.889 -975.975)"/></g><g transform="translate(1246.473 995.296)"><path d="M1255.1,1030.5a21.1,21.1,0,0,0-4.7-.55s-1.348-.047-1.552.268-.447-.083-.506,1.588.444,3.806.222,4.635a8.411,8.411,0,0,0,.033,2.765,13.915,13.915,0,0,1,.111,2.317,8.685,8.685,0,0,0,.65,3.429c.429.529,2.748.418,2.748.418s8.1,1.623,9.382-5.456C1262.638,1033.5,1257.871,1031.112,1255.1,1030.5Zm2.674,8.961c.015,2.684-4.488,1.515-4.488,1.515s-.393-1.62-.568-2.11a14.806,14.806,0,0,1,.1-2.919c.011-.32-.138-2.052-.138-2.052s3.486.261,4.148,1.357c.91,1.51.925,1,.943,4.209Z" transform="translate(-1248.331 -1029.948)"/></g><g transform="translate(1340.637 995.875)"><path d="M1503.459,1042.541c-.605.056-3.105-.108-3.105-.108l-1.827.359s-.336.444-.523-1.534c.2,0,2.493.014,3.068.107.6.1.95.209,1.285-2.192.147-1.055-2.138-1.1-2.138-1.1a24.708,24.708,0,0,1-2.512-.2c.037-.23.132-1.671.132-1.943.135-.184.226-.047.226-.047l1.8.486s2.5.01,3.105.109,1.03.217,1.287-2.192-1.139-2.027-1.139-2.027-3.037-.4-5.323-.628l-.01-.009a5.794,5.794,0,0,0-1.445-.117c-.338-.022-.618-.036-.8-.03l.01.032c-.376.006-.7.012-.864.006-.518-.018-1.449-.545-1.533,1.858l-.148,4.215a10.086,10.086,0,0,0,.249,2.775c.232.785.127,3.717.2,4.065a9.857,9.857,0,0,0,.361,2.029,4.275,4.275,0,0,0,1.88.554c1.29.132,7.609-.251,7.609-.251s1.366.48,1.279-1.942S1504.065,1042.485,1503.459,1042.541Z" transform="translate(-1492.995 -1031.453)"/></g><g transform="translate(1321.56 994.45)"><path d="M1444.27,1044.9s2.668.614,3.293.115.438-10.048.367-10.485,1.615,2.961,3.282,4.315,1.927,2.357,3.183,3.249,2.135,2.019,2.654,2.037a10.475,10.475,0,0,0,2.339.082c.526-.156.723-.841.6-2.234s.519-6.141.311-7.017a26.5,26.5,0,0,1-.306-5.475c.191-.514-1.314-2.128-2.9-1.4s-1.868,1.323-1.815,2.279,1.588,6.665.905,6.329a7.756,7.756,0,0,1-3.527-3.072,25.087,25.087,0,0,0-2.928-3.365,6.307,6.307,0,0,0-1.753-1.971,3.576,3.576,0,0,0-1.894-.413c-.78-.027-2.153-.425-2.527.345s.205,6.513.262,7.384.134,3.6.188,4.537S1443.517,1044.1,1444.27,1044.9Z" transform="translate(-1443.428 -1027.749)"/></g><g transform="translate(1263.263 995.484)"><path d="M1302.42,1041.525c-.605.056-3.1-.108-3.1-.108l-1.827.359s-.336.445-.523-1.534c.2,0,2.493.014,3.068.107.6.1.95.209,1.285-2.192.147-1.055-2.138-1.1-2.138-1.1a24.633,24.633,0,0,1-2.512-.2c.037-.23.132-1.671.132-1.943.135-.184.226-.047.226-.047l1.8.486s2.5.011,3.105.109,1.03.217,1.287-2.192-1.139-2.027-1.139-2.027-3.037-.4-5.323-.628l-.01-.009a5.811,5.811,0,0,0-1.445-.117c-.338-.022-.618-.036-.8-.03l.01.032c-.376.006-.7.012-.864.007-.518-.018-1.449-.545-1.533,1.858l-.148,4.215a10.082,10.082,0,0,0,.249,2.775c.232.785.127,3.717.2,4.065a9.843,9.843,0,0,0,.361,2.029,4.264,4.264,0,0,0,1.881.555c1.29.133,7.609-.251,7.609-.251s1.366.48,1.279-1.942S1303.026,1041.469,1302.42,1041.525Z" transform="translate(-1291.956 -1030.437)"/></g></g></svg>