<svg xmlns="http://www.w3.org/2000/svg" width="220.419" height="99.638" viewBox="0 0 220.419 99.638"><defs><style>.a{fill:#ffe401;}.b,.c{fill:#fff;}.c{isolation:isolate;}.d{fill:none;stroke:#fff;stroke-width:2px;}</style></defs><g transform="translate(0)"><path class="a" d="M23.926.022s-7.5-.149-9.889.321S-1.977,33.625.244,35.076,8.4,34.812,8.4,34.812s5.758-12.321,6.5-13.766S24.046,2.987,23.926.022Z" transform="matrix(0.999, 0.035, -0.035, 0.999, 168.582, 0)"/><path class="b" d="M14.933.005s-5-.215-6.03,2.153S-1.171,24.921.127,29.244s6.5.746,6.5.746.4-5.829,3.943-6.233a66.479,66.479,0,0,0,7.479-.977c1.308-.275,3.135.136,3.766,2.761s2.562,5.12,4.076,4.443,4.18-2.232,4.18-2.232S21.361,1.581,14.933.005ZM11.606,16.934s2.3-10.633,3.078-8.949c1.742,3.787,2.715,4,3.653,8.054C18.336,16.04,12.16,16.959,11.606,16.934Z" transform="matrix(0.999, 0.035, -0.035, 0.999, 29.836, 6.822)"/><path class="b" d="M19.933.3,13.078,0S4.333.55,1.71,5.448-1.312,23.877,6.318,27.731,25.525,29.859,28.2,19.579,26.786.591,19.933.3Zm1.881,15.785c-.638,4.066-3.364,6.78-8.526,6S8.464,14.066,8.776,11.111,14.4,7,14.4,7C21,6.635,22.452,12.015,21.814,16.081Z" transform="matrix(0.999, 0.035, -0.035, 0.999, 89.62, 9.084)"/><path class="b" d="M19.65,16.08s4.6-3.408,2.849-10.164S14.611-.271,7.012.35c0,0-6.509-.76-6.6,1.278L.048,10.147C-.19,15.7.545,16.63.256,19.03s.709,5.316.508,10.007c-.069,1.592,3.045,1.5,6.033,1.07C8.19,27.94,5.517,18.49,8.3,18.61c.941.039,1.812.039,2.553.021a3.362,3.362,0,0,1,3.256,2.188c1.109,3.006,2.946,7.92,3.306,8.447.524.765,4.808.393,5.751.062S19.65,16.08,19.65,16.08ZM14.875,10.6c-.624,1.571-2.881,1.474-5.608,1.356-3.084-.134-1.28-5.18-1.28-5.18C15.792,6.556,15.5,9.028,14.875,10.6Z" transform="matrix(0.999, 0.035, -0.035, 0.999, 136.126, 7.144)"/><path class="b" d="M19.838,15.809s4.45-3.6,2.41-10.277S14.1-.312,6.534.636C6.534.636,0,.157,0,2.2v8.526c0,5.561.776,6.458.589,8.868s.938,5.282.938,9.977c0,1.592,3.108,1.366,6.074.809,1.3-2.225-1.776-11.552,1-11.552.94,0,1.811-.039,2.551-.088A3.362,3.362,0,0,1,14.5,20.781c1.236,2.957,3.283,7.786,3.667,8.3.557.742,4.82.185,5.749-.185S19.838,15.809,19.838,15.809Zm-5-5.27c-.557,1.6-2.816,1.6-5.547,1.6-3.084,0-1.5-5.12-1.5-5.12C15.575,6.458,15.388,8.942,14.833,10.539Z" transform="matrix(0.999, 0.035, -0.035, 0.999, 196.289, 44.275)"/><path class="c" d="M7.635.242S2.45-.347.847.313.036,16.325,2.2,16.637a68.016,68.016,0,0,0,6.892.3s-.236-5.758-.2-6.6S8.783,1.677,7.635.242Z" transform="matrix(0.999, 0.035, -0.035, 0.999, 122.593, 18.986)"/><path class="c" d="M7.635.242S2.45-.347.847.313.036,16.325,2.2,16.637a68.016,68.016,0,0,0,6.892.3s-.236-5.758-.2-6.6S8.783,1.677,7.635.242Z" transform="matrix(0.999, 0.035, -0.035, 0.999, 122.668, 57.288)"/><path class="c" d="M7.635.091A61.56,61.56,0,0,0,.847.118C-.754.366.036,6.132,2.2,6.249S9.1,6.361,9.1,6.361s-.236-2.163-.2-2.48S8.783.63,7.635.091Z" transform="matrix(0.999, 0.035, -0.035, 0.999, 122.15, 8.257)"/><path class="c" d="M7.635.122A45.969,45.969,0,0,0,.847.158C-.754.49.036,8.217,2.2,8.374s6.892.15,6.892.15-.236-2.9-.2-3.324S8.783.844,7.635.122Z" transform="matrix(0.999, 0.035, -0.035, 0.999, 122.3, 44.397)"/><path class="d" d="M19.469.02A60.93,60.93,0,0,0,11.423.3C9.479.712-1.609,29.452.2,30.723s6.634-.232,6.634-.232S11.517,19.7,12.125,18.433,19.566,2.617,19.469.02Z" transform="matrix(0.999, 0.035, -0.035, 0.999, 164.04, 6.119)"/><path class="b" d="M22.818,9.993s5.933-4.464.377-7.611C19.338.2,9.685-1.916,4.692,3s-6.673,8.664-.515,11.959,16.428,4.4,10.79,8.662c-3.549,2.685-7.913-3.694-7.913-3.694s-7.382-.508-7.042,3.02,9.212,11.3,19.452,6.305c7.352-3.586,10.118-11,1.222-15.619S8.6,10.358,11.954,7.839,16.88,7.192,22.818,9.993Z" transform="matrix(0.999, 0.035, -0.035, 0.999, 1.078, 6.282)"/><path class="b" d="M22.58,9.591s5.737-4.713.049-7.618C18.683-.044,8.949-1.74,4.17,3.385s-6.292,8.944,0,11.971,16.6,3.685,11.153,8.188C11.894,26.379,7.259,20.2,7.259,20.2S-.139,20,.353,23.514s9.69,10.892,19.7,5.462c7.193-3.9,9.635-11.421.55-15.656s-12.213-2.75-8.974-5.414S16.529,7.05,22.58,9.591Z" transform="matrix(0.999, 0.035, -0.035, 0.999, 58.317, 44.378)"/><path class="b" d="M22.579,9.592s5.737-4.716.049-7.62C18.681-.043,8.947-1.739,4.171,3.383s-6.294,8.946,0,11.971,16.6,3.685,11.15,8.188c-3.429,2.835-8.064-3.348-8.064-3.348S-.14,20,.352,23.512s9.69,10.892,19.706,5.462c7.19-3.9,9.635-11.418.548-15.656S8.395,10.569,11.634,7.907,16.528,7.05,22.579,9.592Z" transform="matrix(0.999, 0.035, -0.035, 0.999, 90.199, 44.556)"/><path class="b" d="M7.472,2.506c-.15-.781-2.042-1.022-2.814-1.223C3.211.9.942.41.175.819-.982,1.433,3.7,27.553,11.111,27.858c4.205.173,3.385.445,5.342-.37,0,0,11.026-14.05,8.331-27.181a8.684,8.684,0,0,0-5.066.177c-1.75.8-1.18,2.875-1.64,5.036C17.212,9.6,15.592,16.65,13.107,18.3c-1.393.922-3.9-5.921-5.561-13.663C7.449,4.181,7.557,2.95,7.472,2.506Z" transform="matrix(0.999, 0.035, -0.035, 0.999, 61.11, 7.868)"/><path class="b" d="M12.1.721a38.032,38.032,0,0,0-8.512-.7S1.158.026.811.606,0,.488,0,3.5s1.042,6.832.693,8.339,0,2.664.233,4.981a25.279,25.279,0,0,1,.347,4.168c-.116.7.58,5.212,1.391,6.139s4.979.58,4.979.58S22.352,30.12,24.207,17.283C25.885,5.654,17.142,1.648,12.1.721ZM17.488,16.7c.2,4.836-7.992,3.013-7.992,3.013s-.811-2.9-1.158-3.768,0-4.688,0-5.266-.379-3.69-.379-3.69,6.3.25,7.56,2.183C17.257,11.839,17.252,10.915,17.488,16.7Z" transform="matrix(0.999, 0.035, -0.035, 0.999, 2.508, 45.721)"/><path class="b" d="M19.147,19.458c-1.088.141-5.6,0-5.6,0l-3.269.762s-.577.823-1.037-2.731c.365-.012,4.494-.132,5.536,0,1.09.141,1.726.317,2.179-4.032.2-1.911-3.923-1.841-3.923-1.841a44.525,44.525,0,0,1-4.54-.208c.053-.418.132-3.02.115-3.51.231-.34.4-.1.4-.1l3.269.762s4.515-.141,5.6,0,1.869.326,2.181-4.032S17.881.949,17.881.949,12.384.422,8.249.154L8.23.138A10.435,10.435,0,0,0,5.621.018C5.009,0,4.5-.008,4.182.015L4.2.073C3.526.108,2.942.138,2.646.138,1.712.138,0-.752,0,3.585v7.606a18.179,18.179,0,0,0,.624,4.985c.467,1.4.464,6.692.621,7.314s.466,3.533.778,3.634A7.7,7.7,0,0,0,5.448,28c2.336.157,13.7-.933,13.7-.933s2.493.779,2.181-3.581S20.238,19.32,19.147,19.458Z" transform="matrix(0.999, 0.035, -0.035, 0.999, 172.54, 46.792)"/><path class="b" d="M2.5,31.5s4.847.938,5.943,0,.155-18.137,0-18.921,3.1,5.234,6.188,7.57,3.621,4.126,5.942,5.655,3.974,3.5,4.912,3.5,3.283.314,4.221,0,1.252-1.562.938-4.064.547-11.1.118-12.666-1.211-8.912-.9-9.85S27.366-1.02,24.552.387s-3.283,2.5-3.126,4.221,3.283,11.913,2.031,11.352a13.984,13.984,0,0,1-6.55-5.314C14.155,6.809,12.043,5.7,11.416,4.765a11.34,11.34,0,0,0-3.283-3.44A6.444,6.444,0,0,0,4.693.7C3.286.7.786.073.16,1.48S.941,13.208,1.1,14.772s.469,6.481.626,8.165S1.1,30.1,2.5,31.5Z" transform="matrix(0.999, 0.035, -0.035, 0.999, 137.854, 43.709)"/><path class="b" d="M98.374,9.295l-3.781,8.36-3.781-8.36h-.624l4.111,9h.572l4.111-9Zm10.962,9.054a4.338,4.338,0,0,0,4.423-4.562,4.425,4.425,0,1,0-8.846,0A4.348,4.348,0,0,0,109.337,18.349Zm0-.52a3.807,3.807,0,0,1-3.851-4.041,3.854,3.854,0,1,1,7.7,0A3.807,3.807,0,0,1,109.337,17.829Zm16.408-.52a2.157,2.157,0,0,1-1.457.538c-1.162,0-1.769-.676-1.769-1.891V9.8h2.966v-.5h-2.966V7.318h-.572V9.295h-1.7v.5h1.7v6.244a2.1,2.1,0,0,0,2.29,2.307,2.686,2.686,0,0,0,1.8-.624Zm8.6-5.845V9.295h-.555v9h.572V13.51c0-2.307,1.232-3.712,3.33-3.712h.156V9.226A3.423,3.423,0,0,0,134.348,11.463Zm18.559,2.255a4.234,4.234,0,1,0-8.447.069,4.39,4.39,0,0,0,4.562,4.562,4.289,4.289,0,0,0,3.348-1.474l-.364-.382a3.677,3.677,0,0,1-2.983,1.336,3.859,3.859,0,0,1-4.007-3.955h7.892Zm-4.215-3.972a3.7,3.7,0,0,1,3.677,3.66h-7.337A3.66,3.66,0,0,1,148.693,9.746Zm27.527-3.937h-.937l-2.411,1.96h.694Zm1.735,7.909a4.234,4.234,0,1,0-8.447.069,4.39,4.39,0,0,0,4.562,4.562,4.289,4.289,0,0,0,3.348-1.474l-.364-.382a3.677,3.677,0,0,1-2.983,1.336,3.859,3.859,0,0,1-4.007-3.955h7.892Zm-4.215-3.972a3.7,3.7,0,0,1,3.677,3.66h-7.337A3.66,3.66,0,0,1,173.739,9.746Zm15.7,8.6a4.037,4.037,0,0,0,3.33-1.544l-.434-.347a3.444,3.444,0,0,1-2.9,1.37,3.818,3.818,0,0,1-3.9-4.041,3.813,3.813,0,0,1,3.9-4.024,3.444,3.444,0,0,1,2.9,1.37l.434-.364a4.037,4.037,0,0,0-3.33-1.544,4.35,4.35,0,0,0-4.475,4.562A4.35,4.35,0,0,0,189.436,18.349Zm14.5,0a4.338,4.338,0,0,0,4.423-4.562,4.425,4.425,0,1,0-8.846,0A4.348,4.348,0,0,0,203.937,18.349Zm0-.52a3.807,3.807,0,0,1-3.851-4.041,3.854,3.854,0,1,1,7.7,0A3.807,3.807,0,0,1,203.937,17.829Zm12.454.468h.572V5.427h-.572Zm17.05-4.579a4.234,4.234,0,1,0-8.447.069,4.39,4.39,0,0,0,4.562,4.562,4.289,4.289,0,0,0,3.348-1.474l-.364-.382a3.676,3.676,0,0,1-2.983,1.336,3.859,3.859,0,0,1-4.007-3.955h7.892Zm-4.215-3.972a3.7,3.7,0,0,1,3.677,3.66h-7.337A3.66,3.66,0,0,1,229.226,9.746Zm29.088-4.319v6.279a4.113,4.113,0,0,0-3.868-2.48,4.344,4.344,0,0,0-4.406,4.562,4.344,4.344,0,0,0,4.406,4.562,4.106,4.106,0,0,0,3.885-2.515V18.3h.555V5.427Zm-3.851,12.4a3.807,3.807,0,0,1-3.851-4.041,3.854,3.854,0,1,1,7.7,0A3.807,3.807,0,0,1,254.463,17.829Zm13.2-12.454a.556.556,0,0,0-.572.572.562.562,0,0,0,.5.555l-.538,2.411h.451l.624-2.342a2.332,2.332,0,0,0,.1-.624A.566.566,0,0,0,267.663,5.375Zm11.552,3.851a5.228,5.228,0,0,0-3.538,1.318l.312.416A4.653,4.653,0,0,1,279.2,9.746a2.454,2.454,0,0,1,2.775,2.723v.885h-3.278c-2.446,0-3.278,1.145-3.278,2.463,0,1.509,1.2,2.532,3.226,2.532a3.488,3.488,0,0,0,3.348-1.856v1.8h.555V12.469C282.545,10.353,281.365,9.226,279.215,9.226Zm-.538,8.638c-1.682,0-2.689-.8-2.689-2.081,0-1.127.746-1.96,2.706-1.96h3.278V15.7A3.261,3.261,0,0,1,278.677,17.863Zm13.373-6.4V9.295h-.555v9h.572V13.51c0-2.307,1.231-3.712,3.33-3.712h.156V9.226A3.423,3.423,0,0,0,292.05,11.463Zm15.593,5.845a2.157,2.157,0,0,1-1.457.538c-1.162,0-1.769-.676-1.769-1.891V9.8h2.966v-.5h-2.966V7.318h-.572V9.295h-1.7v.5h1.7v6.244a2.1,2.1,0,0,0,2.29,2.307,2.686,2.686,0,0,0,1.8-.624Z" transform="translate(-87.519 81.289)"/><path class="b" d="M19.147,19.458c-1.088.141-5.6,0-5.6,0l-3.269.762s-.577.823-1.037-2.731c.365-.012,4.494-.132,5.536,0,1.09.141,1.726.317,2.179-4.032.2-1.911-3.923-1.841-3.923-1.841a44.525,44.525,0,0,1-4.54-.208c.053-.418.132-3.02.115-3.51.231-.34.4-.1.4-.1l3.269.762s4.515-.141,5.6,0,1.869.326,2.181-4.032S17.881.949,17.881.949,12.384.422,8.249.154L8.23.138A10.435,10.435,0,0,0,5.621.018C5.009,0,4.5-.008,4.182.015L4.2.073C3.526.108,2.942.138,2.646.138,1.712.138,0-.752,0,3.585v7.606a18.179,18.179,0,0,0,.624,4.985c.467,1.4.464,6.692.621,7.314s.466,3.533.778,3.634A7.7,7.7,0,0,0,5.448,28c2.336.157,13.7-.933,13.7-.933s2.493.779,2.181-3.581S20.238,19.32,19.147,19.458Z" transform="matrix(0.999, 0.035, -0.035, 0.999, 33.058, 46.087)"/></g></svg>